# xmcd
#
# Track frame offsets: 
#        150
#        19092
#        49492
#        94295
#        128800
#        157070
#        191275
#        226615
#        247565
#        281610
#
# Disc length: 4020 seconds
#
# Revision: 1
# Processed by: cddbd v1.5.2PL0 Copyright (c) Steve Scherf et al.
# Submitted via: ExactAudioCopy v0.95b2
#
DISCID=7a0fb20a
DTITLE=Grateful Dead - View From The Vault III Disc 03
DYEAR=2002
DGENRE=Rock
TTITLE0=Drums ->
TTITLE1=China Doll ->
TTITLE2=Sugar Magnolia
TTITLE3=It's All Over Now, Baby Blue
TTITLE4=Hey Pocky Way
TTITLE5=New Minglewood Blues
TTITLE6=Candyman
TTITLE7=When I Paint My Masterpiece
TTITLE8=West L.A. Fadeaway
TTITLE9=My Brother Esau
EXTD=YEAR: 2002
EXTT0=
EXTT1=
EXTT2=
EXTT3=
EXTT4=
EXTT5=
EXTT6=
EXTT7=
EXTT8=
EXTT9=
PLAYORDER=
